<?xml version="1.0" encoding="utf-8"?>
<!-- Generator: Adobe Illustrator 24.3.0, SVG Export Plug-In . SVG Version: 6.00 Build 0)  -->
<svg version="1.1" id="Capa_1" xmlns="http://www.w3.org/2000/svg" xmlns:xlink="http://www.w3.org/1999/xlink" x="0px" y="0px"
	 viewBox="0 0 639.6 640" style="enable-background:new 0 0 639.6 640;" xml:space="preserve">
<style type="text/css">
	.st0{fill:#31383F;}
</style>
<path class="st0" d="M100,350.9c9.2,0,16.6-7.4,16.6-16.6s-7.4-16.6-16.6-16.6s-16.6,7.4-16.6,16.6C83.4,343.4,90.9,350.9,100,350.9
	z"/>
<path class="st0" d="M49.1,217.8c9.2,0,16.6-7.4,16.6-16.6c0-9.2-7.4-16.6-16.6-16.6s-16.6,7.4-16.6,16.6
	C32.4,210.3,40,217.8,49.1,217.8z"/>
<g>
	<path class="st0" d="M82.7,420.6c-10.9,10.8-10.9,28.4,0,39.2l152.6,152.6l197.5-13.1l54.1-47.1c2.3-2,5.9-1.8,7.9,0.6
		c2,2.3,1.8,5.9-0.6,7.9L444,604.4l30.9,22.4l79.9-79.9l-88-77.6l-208,17.7c-11.9,1-21.4,10.3-22.7,22.2c-0.3,3.7,0.1,7.3,1.2,10.8
		l0,0c1.1,1,1.7,2.4,1.7,3.8c1,1.9,2.2,3.7,3.8,5.3c5,5.3,12.1,8.2,19.4,7.9l118.9-5.2c3-0.1,5.7,2.3,5.8,5.3c0.1,3-2.2,5.7-5.3,5.8
		l-119,5.1c-10.5,0.4-20.7-3.7-28-11.4c-3-3.1-5.2-6.8-6.9-10.5L122.1,420.3c-5.2-5.2-12.2-8.1-19.6-8.1S88,415.1,82.7,420.6z"/>
</g>
<path class="st0" d="M554.8,184.6c-15.3,0-27.7,12.4-27.7,27.7s12.4,27.7,27.7,27.7s27.7-12.4,27.7-27.7S570.1,184.6,554.8,184.6z"
	/>
</svg>
