<?xml version="1.0" encoding="utf-8"?>
<!-- Generator: Adobe Illustrator 24.3.0, SVG Export Plug-In . SVG Version: 6.00 Build 0)  -->
<svg version="1.1" id="Capa_1" xmlns="http://www.w3.org/2000/svg" xmlns:xlink="http://www.w3.org/1999/xlink" x="0px" y="0px"
	 viewBox="0 0 512 640" style="enable-background:new 0 0 512 640;" xml:space="preserve">
<style type="text/css">
	.st0{fill:#31383F;}
</style>
<path class="st0" d="M16,403.7v-168c0-8.8,7.2-16,16-16h1c8.6,0,15.7,6.8,16,15.4l1.7,31.2L56,388c0.1,2.2,1.1,4.2,2.7,5.7l0,0
	l64,56c3.3,2.9,8.4,2.6,11.3-0.8c2.9-3.3,2.6-8.4-0.8-11.3l0,0l-57.6-50.4l6.1-6.1c8.5-8.5,22-9.4,31.6-2.1l101.2,77.4
	c5.9,4.6,9.4,11.6,9.4,19.1v32.2h-85.3l-113-84.8C19.6,418.3,16,411.2,16,403.7z"/>
<path class="st0" d="M128,531.7c0-4.4,3.6-8,8-8h88v48h-96V531.7z"/>
<path class="st0" d="M391,571.7h-96v-48h88c4.4,0,8,3.6,8,8V571.7z"/>
<path class="st0" d="M503,403.7c0,7.6-3.6,14.7-9.6,19.2l-113.1,84.8H295v-32.2c0-7.5,3.5-14.5,9.4-19.1L405.6,379
	c9.6-7.3,23-6.4,31.6,2.1l6.1,6.1l-57.6,50.4c-3.3,2.9-3.7,8-0.8,11.3s8,3.7,11.3,0.8l0,0l64-56l0,0c1.6-1.4,2.6-3.5,2.7-5.7
	l4.4-101.9L470,235c0.4-8.6,7.4-15.3,16-15.3h1c8.8,0,16,7.2,16,16V403.7z"/>
</svg>
