<?xml version="1.0" encoding="utf-8"?>
<!-- Generator: Adobe Illustrator 24.3.0, SVG Export Plug-In . SVG Version: 6.00 Build 0)  -->
<svg version="1.1" id="Capa_1" xmlns="http://www.w3.org/2000/svg" xmlns:xlink="http://www.w3.org/1999/xlink" x="0px" y="0px"
	 viewBox="0 0 657.8 678.2" style="enable-background:new 0 0 657.8 678.2;" xml:space="preserve">
<style type="text/css">
	.st0{fill:#31383F;stroke:#31383F;stroke-width:1.5;stroke-miterlimit:10;}
</style>
<g>
	<path class="st0" d="M478.2,564.4l-87.6-3.1c-2.2-0.1-3.9-1.9-3.9-4.1l3.3-94.4c0-1.2,0.6-2.3,1.5-3l117.9-92.4
		c9.6-7.5,23.2-7.3,32.5,0.5l3.3-95.3c0.5-15.2,13.4-27.2,28.5-26.6c15.2,0.5,27.2,13.4,26.6,28.5l-5.4,154.9c0,1.2-0.6,2.3-1.5,2.9
		l-109.8,89.6l-1.4,38.7C482.2,562.7,480.4,564.5,478.2,564.4z M394.8,553.5l79.7,2.8l1.2-36.5c0-1.2,0.6-2.3,1.5-2.9L587,427.4
		l5.3-153.1c0.4-10.8-8.1-19.9-18.9-20.3c-10.8-0.4-19.9,8.1-20.3,18.9l-3.6,105.9c1,2.7,1.5,5.8,1.5,8.8c0,7.5-3.3,14.7-9,19.5
		l-64.3,55c-1.7,1.4-4.2,1.3-5.7-0.4c-1.4-1.7-1.3-4.2,0.4-5.7l64.3-54.9c3.9-3.4,6.2-8.3,6.2-13.5c0-1.6-0.2-3.1-0.5-4.5
		c-0.7-0.7-1-1.7-1-2.7l0,0c-1-2.3-2.6-4.4-4.6-6.2c-6.4-5.5-15.9-5.7-22.5-0.5L397.8,465L394.8,553.5L394.8,553.5z"/>
</g>
<g>
	<path class="st0" d="M250.7,561.3l-87.6,3.1c-2.2,0.1-4.1-1.7-4.1-3.9l-1.4-38.7L47.7,432.3c-0.9-0.8-1.5-1.8-1.5-2.9l-5.4-154.9
		c-0.5-15.2,11.4-28,26.6-28.5s28,11.4,28.5,26.6l3.3,95.3c9.3-7.8,22.9-8.1,32.5-0.5l118,92.4c0.9,0.8,1.5,1.8,1.5,3l3.3,94.4
		C254.6,559.4,252.9,561.3,250.7,561.3z M166.7,556.3l79.7-2.8l-3.1-88.6l-116.5-91.3c-6.7-5.2-16.1-5-22.5,0.5
		c-1.9,1.7-3.6,3.8-4.6,6.2l0,0c0,1.1-0.3,2-1,2.7c-0.3,1.5-0.6,3-0.5,4.5c0,5.2,2.3,10.1,6.2,13.5l64.3,54.9
		c1.7,1.4,1.8,3.9,0.4,5.7c-1.4,1.7-3.9,1.8-5.7,0.4l-64.3-54.9c-5.7-4.9-9-12-9-19.5c0-3,0.5-6,1.5-8.8l-3.7-106
		c-0.4-10.8-9.5-19.3-20.3-18.9s-19.2,9.5-18.8,20.3l5.3,153.1L164,516.8c0.9,0.8,1.5,1.8,1.5,2.9
		C165.5,519.8,166.7,556.3,166.7,556.3z"/>
</g>
<g>
	<path class="st0" d="M82.4,203.4c-13.2,0.5-24.4-10-24.8-23.1c-0.5-13.2,10-24.4,23.1-24.8c13.2-0.5,24.4,10,24.8,23.1
		C106,191.8,95.6,202.9,82.4,203.4z M81,163.4c-8.8,0.3-15.7,7.8-15.4,16.5c0.3,8.8,7.8,15.7,16.5,15.4c8.8-0.3,15.7-7.8,15.4-16.5
		C97.2,170.1,89.8,163.1,81,163.4z"/>
</g>
<g>
	<path class="st0" d="M554.9,173.2c-16-0.6-28.5-14-28-30c0.6-16,14-28.5,30-28c16,0.6,28.5,14,28,30
		C584.3,161.2,570.9,173.8,554.9,173.2z M556.6,123.3c-11.6-0.4-21.3,8.7-21.7,20.3s8.7,21.3,20.3,21.7s21.3-8.7,21.7-20.3
		S568.2,123.7,556.6,123.3z"/>
</g>
</svg>
