<?xml version="1.0" encoding="utf-8"?>
<!-- Generator: Adobe Illustrator 24.3.0, SVG Export Plug-In . SVG Version: 6.00 Build 0)  -->
<svg version="1.1"
	 id="Capa_1" xmlns:cc="http://creativecommons.org/ns#" xmlns:dc="http://purl.org/dc/elements/1.1/" xmlns:inkscape="http://www.inkscape.org/namespaces/inkscape" xmlns:rdf="http://www.w3.org/1999/02/22-rdf-syntax-ns#" xmlns:sodipodi="http://sodipodi.sourceforge.net/DTD/sodipodi-0.dtd" xmlns:svg="http://www.w3.org/2000/svg"
	 xmlns="http://www.w3.org/2000/svg" xmlns:xlink="http://www.w3.org/1999/xlink" x="0px" y="0px" viewBox="0 0 34 34.9"
	 style="enable-background:new 0 0 34 34.9;" xml:space="preserve">
<style type="text/css">
	.st0{opacity:0.8;fill:#FF7A36;enable-background:new    ;}
	.st1{fill:#A4CE39;}
	.st2{fill:#68C044;}
	.st3{fill:#E27D47;}
	.st4{fill:#DD544F;}
	.st5{fill:#EEF0F5;}
	.st6{fill:#DAE1EA;}
	.st7{fill:#31383F;}
	.st8{fill:#365E7D;}
	.st9{fill:#2B4D66;}
	.st10{fill:#95D6A4;}
	.st11{fill:#78C2A4;}
</style>
<circle class="st0" cx="17" cy="17.9" r="16.7"/>
<path class="st1" d="M23.2,26.6c0,1.1-3,2.1-6.8,2.1c-3.7,0-6.8-0.9-6.8-2.1c0-0.8,1.4-1.5,3.6-1.8c0.9-0.2,2-0.2,3.2-0.2
	c1.1,0,2.2,0.1,3.2,0.2C21.7,25.1,23.2,25.8,23.2,26.6L23.2,26.6z"/>
<path class="st2" d="M19.6,24.7l-2.3,2.3c-0.2,0.2-0.5,0.3-0.8,0.3c-0.3,0-0.6-0.1-0.8-0.3l-2.3-2.3c0.9-0.2,2-0.2,3.2-0.2
	C17.6,24.5,18.7,24.6,19.6,24.7z"/>
<path class="st3" d="M24.1,16.4c0,3.3-2.1,6.1-5,7.2l-2.7,2.7L16.2,26l-2.5-2.5c-2.9-1.1-5-3.9-5-7.2c0-4,3.1-7.3,7-7.6
	c0.2,0,0.4,0,0.6,0C20.7,8.7,24.1,12.2,24.1,16.4L24.1,16.4z"/>
<path class="st4" d="M24.1,16.4c0,3.3-2.1,6.1-5,7.2l-2.7,2.7L16.2,26l1.6-2.5c2.9-1.1,5-3.9,5-7.2c0-4-3.1-7.3-7-7.6
	c0.2,0,0.4,0,0.6,0C20.7,8.7,24.1,12.2,24.1,16.4L24.1,16.4z"/>
<path class="st5" d="M22.8,16.4c0,3.5-2.9,6.4-6.4,6.4c-0.2,0-0.4,0-0.6,0c-3.2-0.3-5.8-3-5.8-6.4s2.5-6.1,5.8-6.4
	c0.2,0,0.4,0,0.6,0C20,10,22.8,12.9,22.8,16.4L22.8,16.4z"/>
<path class="st6" d="M22.8,16.4c0,3.5-2.9,6.4-6.4,6.4c-0.2,0-0.4,0-0.6,0c3.2-0.3,5.8-3,5.8-6.4s-2.5-6.1-5.8-6.4
	c0.2,0,0.4,0,0.6,0C20,10,22.8,12.9,22.8,16.4L22.8,16.4z"/>
<g>
	<path class="st7" d="M19.7,24.5c-0.2,0-0.3,0.1-0.3,0.2c0,0.2,0.1,0.3,0.2,0.3c2.2,0.4,3.3,1,3.3,1.5c0,0.7-2.5,1.8-6.5,1.8
		c-1.5,0-2.9-0.1-4.1-0.4c-0.2,0-0.3,0.1-0.4,0.2c0,0.2,0.1,0.3,0.2,0.4c1.2,0.3,2.7,0.4,4.2,0.4c1.8,0,3.6-0.2,4.9-0.6
		c1.4-0.4,2.2-1,2.2-1.7C23.5,25.6,22.1,24.9,19.7,24.5L19.7,24.5z"/>
	<path class="st7" d="M11.1,27.5c-0.7-0.3-1.1-0.6-1.1-0.9c0-0.5,1-1.1,3.3-1.5c0.2,0,0.3-0.2,0.2-0.3c0-0.2-0.2-0.3-0.3-0.2
		c-1.1,0.2-2,0.4-2.6,0.8c-0.8,0.4-1.1,0.8-1.1,1.3c0,0.7,0.8,1.2,1.5,1.5c0,0,0.1,0,0.1,0c0.1,0,0.2-0.1,0.3-0.2
		C11.3,27.7,11.3,27.6,11.1,27.5L11.1,27.5z"/>
	<path class="st7" d="M10.2,14.8c-0.2,0-0.3,0.1-0.4,0.2c-0.1,0.4-0.1,0.9-0.1,1.3c0,3.7,3,6.7,6.7,6.7s6.7-3,6.7-6.7
		s-3-6.7-6.7-6.7c-2.7,0-5.1,1.6-6.1,4c-0.1,0.2,0,0.3,0.2,0.4c0.2,0.1,0.3,0,0.4-0.2c1-2.2,3.2-3.6,5.6-3.6c3.4,0,6.1,2.7,6.1,6.1
		c0,3.4-2.7,6.1-6.1,6.1s-6.1-2.7-6.1-6.1c0-0.4,0-0.8,0.1-1.2C10.5,15,10.4,14.8,10.2,14.8L10.2,14.8z"/>
	<path class="st7" d="M13.6,23.8l2.6,2.6c0.1,0.1,0.1,0.1,0.2,0.1c0.1,0,0.2,0,0.2-0.1l2.6-2.6c1.7-0.6,3.1-1.9,4-3.4
		c0.1-0.1,0-0.3-0.1-0.4c-0.1-0.1-0.3,0-0.4,0.1c-0.9,1.5-2.2,2.6-3.8,3.2c0,0-0.1,0-0.1,0.1l-2.4,2.4L14,23.3c0,0-0.1-0.1-0.1-0.1
		c-1.4-0.5-2.6-1.4-3.4-2.6c-0.9-1.2-1.3-2.7-1.3-4.2c0-4,3.3-7.3,7.4-7.3c1,0,2,0.2,3,0.6c0.2,0.1,0.3,0,0.4-0.2
		c0.1-0.2,0-0.3-0.2-0.4c-1-0.4-2.1-0.7-3.2-0.7c-4.4,0-8,3.6-8,7.9C8.5,18,9,19.6,9.9,21C10.9,22.3,12.1,23.2,13.6,23.8L13.6,23.8z
		"/>
	<path class="st7" d="M20.9,9.8c-0.1-0.1-0.3-0.1-0.4,0.1c-0.1,0.1-0.1,0.3,0.1,0.4c2,1.4,3.2,3.6,3.2,6.1c0,0.9-0.2,1.8-0.5,2.6
		c-0.1,0.2,0,0.3,0.2,0.4c0,0,0.1,0,0.1,0c0.1,0,0.2-0.1,0.3-0.2c0.3-0.9,0.5-1.8,0.5-2.8C24.4,13.7,23.1,11.3,20.9,9.8z"/>
</g>
<g>
	<path class="st8" d="M19.3,18.1h-6.1v-4c0-0.1,0.1-0.2,0.2-0.2h5.7c0.1,0,0.2,0.1,0.2,0.2L19.3,18.1L19.3,18.1z"/>
	<path class="st9" d="M19.1,13.9h-0.3c0.1,0,0.2,0.1,0.2,0.2v4h0.3v-4C19.3,14,19.2,13.9,19.1,13.9z"/>
	<path class="st10" d="M13.6,14.7h5.3v3.3h-5.3V14.7z"/>
	<path class="st11" d="M18.6,14.7h0.3v3.3h-0.3V14.7z"/>
	<path class="st8" d="M15.5,18.1H17v2.5h-1.5V18.1z"/>
	<path class="st9" d="M15.5,18.1v0.2h1c0.1,0,0.2,0.1,0.2,0.2v2.1H17v-2.5H15.5z"/>
	<g>
		<path class="st7" d="M19.5,18L19.5,18l0-3c0-0.1,0-0.1-0.1-0.1c-0.1,0-0.1,0-0.1,0.1v3H19v-3.2c0-0.1,0-0.1-0.1-0.1h-5.3
			c-0.1,0-0.1,0-0.1,0.1V18h-0.2v-3.9c0-0.1,0.1-0.1,0.1-0.1H14v0.3h-0.1c-0.1,0-0.1,0-0.1,0.1s0,0.1,0.1,0.1h0.4
			c0.1,0,0.1,0,0.1-0.1s0-0.1-0.1-0.1h-0.1V14h0.9v0.3h-0.1c-0.1,0-0.1,0-0.1,0.1s0,0.1,0.1,0.1h0.4c0.1,0,0.1,0,0.1-0.1
			s0-0.1-0.1-0.1h-0.1V14h0.9v0.3H16c-0.1,0-0.1,0-0.1,0.1s0,0.1,0.1,0.1h0.4c0.1,0,0.1,0,0.1-0.1s0-0.1-0.1-0.1h-0.1V14h0.9v0.3
			h-0.1c-0.1,0-0.1,0-0.1,0.1s0,0.1,0.1,0.1h0.4c0.1,0,0.1,0,0.1-0.1s0-0.1-0.1-0.1h-0.1V14h0.9v0.3h-0.1c-0.1,0-0.1,0-0.1,0.1
			s0,0.1,0.1,0.1h0.4c0.1,0,0.1,0,0.1-0.1s0-0.1-0.1-0.1h-0.1V14h0.6c0.1,0,0.1,0.1,0.1,0.1v0.4c0,0.1,0,0.1,0.1,0.1
			c0.1,0,0.1,0,0.1-0.1v-0.4c0-0.2-0.1-0.3-0.3-0.3h-5.7c-0.2,0-0.3,0.1-0.3,0.3V18h0c-0.1,0-0.1,0-0.1,0.1c0,0.1,0,0.1,0.1,0.1H14
			v0.4c0,0.1,0,0.1,0.1,0.1h0.5v0.2h-0.1c-0.1,0-0.1,0-0.1,0.1c0,0.1,0,0.1,0.1,0.1h1v1.4h-0.5l0,0c0-0.1,0-0.1-0.1-0.1
			c-0.1,0-0.1,0-0.1,0.1l0,0.1l-0.1-0.1c0,0-0.1,0-0.1,0c0,0,0,0.1,0,0.1l0,0h-0.7c-0.1,0-0.1,0-0.1,0.1s0,0.1,0.1,0.1h5
			c0.1,0,0.1,0,0.1-0.1s0-0.1-0.1-0.1H18l0,0c0,0,0-0.1,0-0.1c0,0-0.1,0-0.1,0l-0.1,0.1l0-0.1c0-0.1-0.1-0.1-0.1-0.1
			c-0.1,0-0.1,0.1-0.1,0.1l0,0h-0.5V20c0-0.1,0-0.1-0.1-0.1s-0.1,0-0.1,0.1v0.4h-1.3v-2.3h1.3v1.5c0,0.1,0,0.1,0.1,0.1
			s0.1,0,0.1-0.1v-0.6h1c0.1,0,0.1,0,0.1-0.1c0-0.1,0-0.1-0.1-0.1h-0.1v-0.2h0.5c0.1,0,0.1,0,0.1-0.1v-0.4h0.9c0.1,0,0.1,0,0.1-0.1
			S19.5,18,19.5,18L19.5,18z M14.8,18.9v-0.2h0.6v0.2H14.8z M15.4,18.5h-1.3v-0.3h1.3V18.5z M17.7,18.9h-0.6v-0.2h0.6V18.9z
			 M18.3,18.5h-1.3v-0.3h1.3V18.5z M13.7,18v-3.1h5.1V18H13.7z"/>
	</g>
</g>
</svg>
